<svg width="14" height="14" viewBox="0 0 14 14" fill="none" xmlns="http://www.w3.org/2000/svg">
<path d="M13.75 1V10.75C13.75 10.9489 13.671 11.1397 13.5303 11.2803C13.3897 11.421 13.1989 11.5 13 11.5C12.8011 11.5 12.6103 11.421 12.4697 11.2803C12.329 11.1397 12.25 10.9489 12.25 10.75V2.81031L1.53062 13.5306C1.38988 13.6714 1.19901 13.7504 0.99999 13.7504C0.800967 13.7504 0.610095 13.6714 0.469365 13.5306C0.328634 13.3899 0.249573 13.199 0.249573 13C0.249573 12.801 0.328634 12.6101 0.469365 12.4694L11.1897 1.75H3.24999C3.05108 1.75 2.86031 1.67098 2.71966 1.53033C2.57901 1.38968 2.49999 1.19891 2.49999 1C2.49999 0.801088 2.57901 0.610322 2.71966 0.46967C2.86031 0.329018 3.05108 0.25 3.24999 0.25H13C13.1989 0.25 13.3897 0.329018 13.5303 0.46967C13.671 0.610322 13.75 0.801088 13.75 1Z" fill="#EFEFEF"/>
</svg>
