<svg width="85" height="78" viewBox="0 0 85 78" fill="none" xmlns="http://www.w3.org/2000/svg">
<rect width="85" height="78" rx="4" fill="#442B2B"/>
<path d="M58.3751 29.9175C58.0809 30.0699 57.7382 30.0992 57.4223 29.999C57.1065 29.8988 56.8433 29.6773 56.6907 29.3831C55.4976 27.0261 53.6916 25.0339 51.4626 23.616C51.3237 23.5283 51.2034 23.4142 51.1086 23.2801C51.0138 23.146 50.9463 22.9945 50.91 22.8344C50.8738 22.6742 50.8694 22.5084 50.8972 22.3465C50.925 22.1847 50.9844 22.0299 51.072 21.891C51.1596 21.752 51.2737 21.6317 51.4078 21.5369C51.5419 21.4421 51.6934 21.3747 51.8536 21.3384C52.0138 21.3021 52.1795 21.2977 52.3414 21.3255C52.5033 21.3533 52.6581 21.4127 52.797 21.5003C55.3948 23.1637 57.5042 25.4871 58.9095 28.2331C59.0619 28.5274 59.0912 28.8701 58.991 29.1859C58.8908 29.5018 58.6692 29.7649 58.3751 29.9175ZM28.9548 30.0581C29.1838 30.058 29.4084 29.995 29.604 29.876C29.7997 29.757 29.9588 29.5865 30.0642 29.3831C31.2573 27.0261 33.0633 25.0339 35.2923 23.616C35.5728 23.439 35.7716 23.1579 35.8449 22.8344C35.9181 22.5109 35.8599 22.1715 35.6829 21.891C35.506 21.6104 35.2248 21.4116 34.9013 21.3384C34.5778 21.2651 34.2385 21.3234 33.9579 21.5003C31.3601 23.1637 29.2507 25.4871 27.8454 28.2331C27.7467 28.4236 27.6987 28.6363 27.706 28.8508C27.7134 29.0652 27.7757 29.2741 27.8872 29.4574C27.9986 29.6408 28.1554 29.7923 28.3424 29.8975C28.5293 30.0027 28.7403 30.0581 28.9548 30.0581ZM58.0329 46.2988C58.2544 46.6785 58.3718 47.11 58.3733 47.5496C58.3748 47.9892 58.2604 48.4214 58.0415 48.8027C57.8227 49.1839 57.5072 49.5007 57.1268 49.7212C56.7465 49.9416 56.3147 50.0578 55.8751 50.0581H49.5001C49.2132 51.471 48.4467 52.7412 47.3304 53.6536C46.2142 54.566 44.8168 55.0644 43.3751 55.0644C41.9334 55.0644 40.5361 54.566 39.4198 53.6536C38.3035 52.7412 37.537 51.471 37.2501 50.0581H30.8751C30.4358 50.0573 30.0044 49.9406 29.6245 49.72C29.2446 49.4993 28.9295 49.1825 28.711 48.8013C28.4926 48.4201 28.3784 47.9881 28.3801 47.5488C28.3817 47.1094 28.4991 46.6783 28.7204 46.2988C30.1282 43.8691 30.8751 40.4144 30.8751 36.3081C30.8751 32.9929 32.1921 29.8135 34.5363 27.4693C36.8805 25.1251 40.0599 23.8081 43.3751 23.8081C46.6903 23.8081 49.8697 25.1251 52.2139 27.4693C54.5582 29.8135 55.8751 32.9929 55.8751 36.3081C55.8751 40.4128 56.622 43.8675 58.0329 46.2988ZM46.9095 50.0581H39.8407C40.0997 50.7885 40.5786 51.4206 41.2115 51.8677C41.8444 52.3148 42.6002 52.5549 43.3751 52.5549C44.15 52.5549 44.9059 52.3148 45.5388 51.8677C46.1717 51.4206 46.6505 50.7885 46.9095 50.0581ZM55.8751 47.5581C54.2126 44.7035 53.3751 40.9191 53.3751 36.3081C53.3751 33.656 52.3215 31.1124 50.4462 29.2371C48.5708 27.3617 46.0273 26.3081 43.3751 26.3081C40.7229 26.3081 38.1794 27.3617 36.304 29.2371C34.4287 31.1124 33.3751 33.656 33.3751 36.3081C33.3751 40.9206 32.5345 44.705 30.8751 47.5581H55.8751Z" fill="black"/>
<path d="M58.3751 29.9175C58.0809 30.0699 57.7382 30.0992 57.4223 29.999C57.1065 29.8988 56.8433 29.6773 56.6907 29.3831C55.4976 27.0261 53.6916 25.0339 51.4626 23.616C51.3237 23.5283 51.2034 23.4142 51.1086 23.2801C51.0138 23.146 50.9463 22.9945 50.91 22.8344C50.8738 22.6742 50.8694 22.5084 50.8972 22.3465C50.925 22.1847 50.9844 22.0299 51.072 21.891C51.1596 21.752 51.2737 21.6317 51.4078 21.5369C51.5419 21.4421 51.6934 21.3747 51.8536 21.3384C52.0138 21.3021 52.1795 21.2977 52.3414 21.3255C52.5033 21.3533 52.6581 21.4127 52.797 21.5003C55.3948 23.1637 57.5042 25.4871 58.9095 28.2331C59.0619 28.5274 59.0912 28.8701 58.991 29.1859C58.8908 29.5018 58.6692 29.7649 58.3751 29.9175ZM28.9548 30.0581C29.1838 30.058 29.4084 29.995 29.604 29.876C29.7997 29.757 29.9588 29.5865 30.0642 29.3831C31.2573 27.0261 33.0633 25.0339 35.2923 23.616C35.5728 23.439 35.7716 23.1579 35.8449 22.8344C35.9181 22.5109 35.8599 22.1715 35.6829 21.891C35.506 21.6104 35.2248 21.4116 34.9013 21.3384C34.5778 21.2651 34.2385 21.3234 33.9579 21.5003C31.3601 23.1637 29.2507 25.4871 27.8454 28.2331C27.7467 28.4236 27.6987 28.6363 27.706 28.8508C27.7134 29.0652 27.7757 29.2741 27.8872 29.4574C27.9986 29.6408 28.1554 29.7923 28.3424 29.8975C28.5293 30.0027 28.7403 30.0581 28.9548 30.0581ZM58.0329 46.2988C58.2544 46.6785 58.3718 47.11 58.3733 47.5496C58.3748 47.9892 58.2604 48.4214 58.0415 48.8027C57.8227 49.1839 57.5072 49.5007 57.1268 49.7212C56.7465 49.9416 56.3147 50.0578 55.8751 50.0581H49.5001C49.2132 51.471 48.4467 52.7412 47.3304 53.6536C46.2142 54.566 44.8168 55.0644 43.3751 55.0644C41.9334 55.0644 40.5361 54.566 39.4198 53.6536C38.3035 52.7412 37.537 51.471 37.2501 50.0581H30.8751C30.4358 50.0573 30.0044 49.9406 29.6245 49.72C29.2446 49.4993 28.9295 49.1825 28.711 48.8013C28.4926 48.4201 28.3784 47.9881 28.3801 47.5488C28.3817 47.1094 28.4991 46.6783 28.7204 46.2988C30.1282 43.8691 30.8751 40.4144 30.8751 36.3081C30.8751 32.9929 32.1921 29.8135 34.5363 27.4693C36.8805 25.1251 40.0599 23.8081 43.3751 23.8081C46.6903 23.8081 49.8697 25.1251 52.2139 27.4693C54.5582 29.8135 55.8751 32.9929 55.8751 36.3081C55.8751 40.4128 56.622 43.8675 58.0329 46.2988ZM46.9095 50.0581H39.8407C40.0997 50.7885 40.5786 51.4206 41.2115 51.8677C41.8444 52.3148 42.6002 52.5549 43.3751 52.5549C44.15 52.5549 44.9059 52.3148 45.5388 51.8677C46.1717 51.4206 46.6505 50.7885 46.9095 50.0581ZM55.8751 47.5581C54.2126 44.7035 53.3751 40.9191 53.3751 36.3081C53.3751 33.656 52.3215 31.1124 50.4462 29.2371C48.5708 27.3617 46.0273 26.3081 43.3751 26.3081C40.7229 26.3081 38.1794 27.3617 36.304 29.2371C34.4287 31.1124 33.3751 33.656 33.3751 36.3081C33.3751 40.9206 32.5345 44.705 30.8751 47.5581H55.8751Z" fill="url(#paint0_linear_17_8696)"/>
<defs>
<linearGradient id="paint0_linear_17_8696" x1="44.0729" y1="42.6598" x2="55.1685" y2="42.9139" gradientUnits="userSpaceOnUse">
<stop stop-color="#62B1F9"/>
<stop offset="1" stop-color="#FF7315"/>
</linearGradient>
</defs>
</svg>
