<svg width="85" height="78" viewBox="0 0 85 78" fill="none" xmlns="http://www.w3.org/2000/svg">
<rect width="85" height="78" rx="4" fill="url(#paint0_linear_22_9003)" fill-opacity="0.1"/>
<path d="M55.5 26.5H30.5C29.5054 26.5 28.5516 26.8951 27.8483 27.5983C27.1451 28.3016 26.75 29.2554 26.75 30.25V47.75C26.75 48.7446 27.1451 49.6984 27.8483 50.4017C28.5516 51.1049 29.5054 51.5 30.5 51.5H55.5C56.4946 51.5 57.4484 51.1049 58.1517 50.4017C58.8549 49.6984 59.25 48.7446 59.25 47.75V30.25C59.25 29.2554 58.8549 28.3016 58.1517 27.5983C57.4484 26.8951 56.4946 26.5 55.5 26.5ZM29.25 34H56.75V36.5H49.1234C48.5472 36.5003 47.9887 36.6997 47.5425 37.0644C47.0964 37.4292 46.7899 37.9369 46.675 38.5016C46.4999 39.3459 46.0391 40.1042 45.3703 40.6485C44.7015 41.1929 43.8655 41.4901 43.0031 41.4901C42.1408 41.4901 41.3048 41.1929 40.636 40.6485C39.9671 40.1042 39.5064 39.3459 39.3312 38.5016C39.2161 37.9358 38.9088 37.4273 38.4613 37.0625C38.0139 36.6976 37.4539 36.4989 36.8766 36.5H29.25V34ZM30.5 29H55.5C55.8315 29 56.1495 29.1317 56.3839 29.3661C56.6183 29.6005 56.75 29.9185 56.75 30.25V31.5H29.25V30.25C29.25 29.9185 29.3817 29.6005 29.6161 29.3661C29.8505 29.1317 30.1685 29 30.5 29ZM55.5 49H30.5C30.1685 49 29.8505 48.8683 29.6161 48.6339C29.3817 48.3995 29.25 48.0815 29.25 47.75V39H36.875C37.1626 40.412 37.9294 41.6813 39.0454 42.5929C40.1614 43.5045 41.5582 44.0024 42.9992 44.0024C44.4402 44.0024 45.837 43.5045 46.953 42.5929C48.0691 41.6813 48.8358 40.412 49.1234 39H56.75V47.75C56.75 48.0815 56.6183 48.3995 56.3839 48.6339C56.1495 48.8683 55.8315 49 55.5 49Z" fill="white"/>
<path d="M55.5 26.5H30.5C29.5054 26.5 28.5516 26.8951 27.8483 27.5983C27.1451 28.3016 26.75 29.2554 26.75 30.25V47.75C26.75 48.7446 27.1451 49.6984 27.8483 50.4017C28.5516 51.1049 29.5054 51.5 30.5 51.5H55.5C56.4946 51.5 57.4484 51.1049 58.1517 50.4017C58.8549 49.6984 59.25 48.7446 59.25 47.75V30.25C59.25 29.2554 58.8549 28.3016 58.1517 27.5983C57.4484 26.8951 56.4946 26.5 55.5 26.5ZM29.25 34H56.75V36.5H49.1234C48.5472 36.5003 47.9887 36.6997 47.5425 37.0644C47.0964 37.4292 46.7899 37.9369 46.675 38.5016C46.4999 39.3459 46.0391 40.1042 45.3703 40.6485C44.7015 41.1929 43.8655 41.4901 43.0031 41.4901C42.1408 41.4901 41.3048 41.1929 40.636 40.6485C39.9671 40.1042 39.5064 39.3459 39.3312 38.5016C39.2161 37.9358 38.9088 37.4273 38.4613 37.0625C38.0139 36.6976 37.4539 36.4989 36.8766 36.5H29.25V34ZM30.5 29H55.5C55.8315 29 56.1495 29.1317 56.3839 29.3661C56.6183 29.6005 56.75 29.9185 56.75 30.25V31.5H29.25V30.25C29.25 29.9185 29.3817 29.6005 29.6161 29.3661C29.8505 29.1317 30.1685 29 30.5 29ZM55.5 49H30.5C30.1685 49 29.8505 48.8683 29.6161 48.6339C29.3817 48.3995 29.25 48.0815 29.25 47.75V39H36.875C37.1626 40.412 37.9294 41.6813 39.0454 42.5929C40.1614 43.5045 41.5582 44.0024 42.9992 44.0024C44.4402 44.0024 45.837 43.5045 46.953 42.5929C48.0691 41.6813 48.8358 40.412 49.1234 39H56.75V47.75C56.75 48.0815 56.6183 48.3995 56.3839 48.6339C56.1495 48.8683 55.8315 49 55.5 49Z" fill="url(#paint1_linear_22_9003)"/>
<defs>
<linearGradient id="paint0_linear_22_9003" x1="44.3861" y1="49.3374" x2="74.4694" y2="50.1459" gradientUnits="userSpaceOnUse">
<stop stop-color="#34CEAA"/>
<stop offset="1" stop-color="#FF7315"/>
</linearGradient>
<linearGradient id="paint1_linear_22_9003" x1="43.7212" y1="42.3133" x2="55.2201" y2="42.682" gradientUnits="userSpaceOnUse">
<stop stop-color="#34CEAA"/>
<stop offset="1" stop-color="#FF7315"/>
</linearGradient>
</defs>
</svg>
