<svg width="85" height="78" viewBox="0 0 85 78" fill="none" xmlns="http://www.w3.org/2000/svg">
<rect width="85" height="78" rx="4" fill="url(#paint0_linear_22_9010)" fill-opacity="0.1"/>
<g clip-path="url(#clip0_22_9010)">
<path d="M58.9891 41.1319C58.5239 40.7741 57.9825 40.5282 57.4069 40.4136C56.8313 40.299 56.2371 40.3186 55.6703 40.471L49.1328 41.9741C49.2849 41.3316 49.2896 40.663 49.1466 40.0184C49.0035 39.3738 48.7164 38.77 48.3068 38.2521C47.8972 37.7343 47.3756 37.3159 46.7813 37.0282C46.187 36.7406 45.5353 36.5912 44.875 36.5913H37.0531C36.3962 36.5897 35.7456 36.7182 35.1386 36.9695C34.5317 37.2208 33.9806 37.5899 33.5172 38.0554L29.9828 41.5913H25.5C24.837 41.5913 24.2011 41.8547 23.7322 42.3235C23.2634 42.7924 23 43.4283 23 44.0913V50.3413C23 51.0044 23.2634 51.6402 23.7322 52.1091C24.2011 52.5779 24.837 52.8413 25.5 52.8413H41.75C41.8522 52.8414 41.954 52.8288 42.0531 52.8038L52.0531 50.3038C52.1169 50.2886 52.1791 50.2677 52.2391 50.2413L58.3125 47.6569L58.3812 47.6257C58.965 47.334 59.4648 46.8986 59.8337 46.3603C60.2026 45.8221 60.4284 45.1988 60.4898 44.5492C60.5512 43.8995 60.4463 43.245 60.1848 42.6471C59.9233 42.0493 59.514 41.5279 58.9953 41.1319H58.9891ZM25.5 44.0913H29.25V50.3413H25.5V44.0913ZM57.2859 45.3741L51.3484 47.9022L41.5938 50.3413H31.75V43.3585L35.2859 39.8241C35.5172 39.591 35.7926 39.4061 36.096 39.2803C36.3993 39.1545 36.7247 39.0903 37.0531 39.0913H44.875C45.3723 39.0913 45.8492 39.2889 46.2008 39.6405C46.5525 39.9921 46.75 40.469 46.75 40.9663C46.75 41.4636 46.5525 41.9405 46.2008 42.2921C45.8492 42.6438 45.3723 42.8413 44.875 42.8413H40.5C40.1685 42.8413 39.8505 42.973 39.6161 43.2074C39.3817 43.4418 39.25 43.7598 39.25 44.0913C39.25 44.4228 39.3817 44.7408 39.6161 44.9752C39.8505 45.2096 40.1685 45.3413 40.5 45.3413H45.5C45.5941 45.341 45.6879 45.3306 45.7797 45.3101L56.2484 42.9022L56.2969 42.8897C56.6165 42.801 56.9576 42.8336 57.2545 42.9813C57.5515 43.1289 57.7834 43.3812 57.9056 43.6895C58.0278 43.9979 58.0316 44.3405 57.9163 44.6515C57.8011 44.9625 57.5749 45.2199 57.2812 45.3741H57.2859ZM48.625 34.0913C48.9338 34.0917 49.2422 34.0666 49.5469 34.0163C49.8896 35.0343 50.5167 35.933 51.3539 36.6059C52.1912 37.2789 53.2037 37.698 54.2716 37.8138C55.3395 37.9296 56.4183 37.7371 57.3803 37.2593C58.3423 36.7814 59.1474 36.038 59.7004 35.1171C60.2533 34.1962 60.531 33.1362 60.5006 32.0624C60.4702 30.9886 60.133 29.946 59.5289 29.0579C58.9247 28.1697 58.0789 27.4731 57.0913 27.0504C56.1038 26.6277 55.0159 26.4966 53.9562 26.6726C53.6262 25.6917 53.032 24.8209 52.239 24.156C51.446 23.491 50.4849 23.0578 49.4615 22.9039C48.4381 22.75 47.3921 22.8814 46.4386 23.2836C45.485 23.6858 44.661 24.3434 44.057 25.1838C43.4531 26.0242 43.0927 27.0149 43.0156 28.0469C42.9384 29.0789 43.1475 30.1122 43.6197 31.0331C44.0919 31.954 44.8091 32.7267 45.6922 33.2663C46.5753 33.8058 47.5901 34.0913 48.625 34.0913ZM58 32.2163C58 32.8344 57.8167 33.4386 57.4733 33.9525C57.13 34.4664 56.6419 34.8669 56.0709 35.1034C55.4999 35.34 54.8715 35.4018 54.2653 35.2813C53.6592 35.1607 53.1023 34.8631 52.6653 34.426C52.2283 33.989 51.9306 33.4322 51.81 32.826C51.6895 32.2198 51.7514 31.5914 51.9879 31.0204C52.2244 30.4494 52.6249 29.9613 53.1388 29.618C53.6527 29.2746 54.2569 29.0913 54.875 29.0913C55.7038 29.0913 56.4987 29.4206 57.0847 30.0066C57.6708 30.5927 58 31.3875 58 32.2163ZM48.625 25.3413C49.3067 25.3417 49.9696 25.5649 50.5127 25.9771C51.0557 26.3892 51.4491 26.9676 51.6328 27.6241C50.9926 28.0746 50.4535 28.6537 50.0499 29.3245C49.6463 29.9952 49.3872 30.7428 49.2891 31.5194C49.0708 31.5666 48.8483 31.5907 48.625 31.5913C47.7962 31.5913 47.0013 31.2621 46.4153 30.676C45.8292 30.09 45.5 29.2951 45.5 28.4663C45.5 27.6375 45.8292 26.8427 46.4153 26.2566C47.0013 25.6706 47.7962 25.3413 48.625 25.3413Z" fill="white"/>
<path d="M58.9891 41.1319C58.5239 40.7741 57.9825 40.5282 57.4069 40.4136C56.8313 40.299 56.2371 40.3186 55.6703 40.471L49.1328 41.9741C49.2849 41.3316 49.2896 40.663 49.1466 40.0184C49.0035 39.3738 48.7164 38.77 48.3068 38.2521C47.8972 37.7343 47.3756 37.3159 46.7813 37.0282C46.187 36.7406 45.5353 36.5912 44.875 36.5913H37.0531C36.3962 36.5897 35.7456 36.7182 35.1386 36.9695C34.5317 37.2208 33.9806 37.5899 33.5172 38.0554L29.9828 41.5913H25.5C24.837 41.5913 24.2011 41.8547 23.7322 42.3235C23.2634 42.7924 23 43.4283 23 44.0913V50.3413C23 51.0044 23.2634 51.6402 23.7322 52.1091C24.2011 52.5779 24.837 52.8413 25.5 52.8413H41.75C41.8522 52.8414 41.954 52.8288 42.0531 52.8038L52.0531 50.3038C52.1169 50.2886 52.1791 50.2677 52.2391 50.2413L58.3125 47.6569L58.3812 47.6257C58.965 47.334 59.4648 46.8986 59.8337 46.3603C60.2026 45.8221 60.4284 45.1988 60.4898 44.5492C60.5512 43.8995 60.4463 43.245 60.1848 42.6471C59.9233 42.0493 59.514 41.5279 58.9953 41.1319H58.9891ZM25.5 44.0913H29.25V50.3413H25.5V44.0913ZM57.2859 45.3741L51.3484 47.9022L41.5938 50.3413H31.75V43.3585L35.2859 39.8241C35.5172 39.591 35.7926 39.4061 36.096 39.2803C36.3993 39.1545 36.7247 39.0903 37.0531 39.0913H44.875C45.3723 39.0913 45.8492 39.2889 46.2008 39.6405C46.5525 39.9921 46.75 40.469 46.75 40.9663C46.75 41.4636 46.5525 41.9405 46.2008 42.2921C45.8492 42.6438 45.3723 42.8413 44.875 42.8413H40.5C40.1685 42.8413 39.8505 42.973 39.6161 43.2074C39.3817 43.4418 39.25 43.7598 39.25 44.0913C39.25 44.4228 39.3817 44.7408 39.6161 44.9752C39.8505 45.2096 40.1685 45.3413 40.5 45.3413H45.5C45.5941 45.341 45.6879 45.3306 45.7797 45.3101L56.2484 42.9022L56.2969 42.8897C56.6165 42.801 56.9576 42.8336 57.2545 42.9813C57.5515 43.1289 57.7834 43.3812 57.9056 43.6895C58.0278 43.9979 58.0316 44.3405 57.9163 44.6515C57.8011 44.9625 57.5749 45.2199 57.2812 45.3741H57.2859ZM48.625 34.0913C48.9338 34.0917 49.2422 34.0666 49.5469 34.0163C49.8896 35.0343 50.5167 35.933 51.3539 36.6059C52.1912 37.2789 53.2037 37.698 54.2716 37.8138C55.3395 37.9296 56.4183 37.7371 57.3803 37.2593C58.3423 36.7814 59.1474 36.038 59.7004 35.1171C60.2533 34.1962 60.531 33.1362 60.5006 32.0624C60.4702 30.9886 60.133 29.946 59.5289 29.0579C58.9247 28.1697 58.0789 27.4731 57.0913 27.0504C56.1038 26.6277 55.0159 26.4966 53.9562 26.6726C53.6262 25.6917 53.032 24.8209 52.239 24.156C51.446 23.491 50.4849 23.0578 49.4615 22.9039C48.4381 22.75 47.3921 22.8814 46.4386 23.2836C45.485 23.6858 44.661 24.3434 44.057 25.1838C43.4531 26.0242 43.0927 27.0149 43.0156 28.0469C42.9384 29.0789 43.1475 30.1122 43.6197 31.0331C44.0919 31.954 44.8091 32.7267 45.6922 33.2663C46.5753 33.8058 47.5901 34.0913 48.625 34.0913ZM58 32.2163C58 32.8344 57.8167 33.4386 57.4733 33.9525C57.13 34.4664 56.6419 34.8669 56.0709 35.1034C55.4999 35.34 54.8715 35.4018 54.2653 35.2813C53.6592 35.1607 53.1023 34.8631 52.6653 34.426C52.2283 33.989 51.9306 33.4322 51.81 32.826C51.6895 32.2198 51.7514 31.5914 51.9879 31.0204C52.2244 30.4494 52.6249 29.9613 53.1388 29.618C53.6527 29.2746 54.2569 29.0913 54.875 29.0913C55.7038 29.0913 56.4987 29.4206 57.0847 30.0066C57.6708 30.5927 58 31.3875 58 32.2163ZM48.625 25.3413C49.3067 25.3417 49.9696 25.5649 50.5127 25.9771C51.0557 26.3892 51.4491 26.9676 51.6328 27.6241C50.9926 28.0746 50.4535 28.6537 50.0499 29.3245C49.6463 29.9952 49.3872 30.7428 49.2891 31.5194C49.0708 31.5666 48.8483 31.5907 48.625 31.5913C47.7962 31.5913 47.0013 31.2621 46.4153 30.676C45.8292 30.09 45.5 29.2951 45.5 28.4663C45.5 27.6375 45.8292 26.8427 46.4153 26.2566C47.0013 25.6706 47.7962 25.3413 48.625 25.3413Z" fill="url(#paint1_linear_22_9010)"/>
</g>
<defs>
<linearGradient id="paint0_linear_22_9010" x1="44.3861" y1="49.3374" x2="74.4694" y2="50.1459" gradientUnits="userSpaceOnUse">
<stop stop-color="#34CEAA"/>
<stop offset="1" stop-color="#FF7315"/>
</linearGradient>
<linearGradient id="paint1_linear_22_9010" x1="42.5857" y1="41.8172" x2="55.8572" y2="42.2265" gradientUnits="userSpaceOnUse">
<stop stop-color="#34CEAA"/>
<stop offset="1" stop-color="#FF7315"/>
</linearGradient>
<clipPath id="clip0_22_9010">
<rect width="40" height="40" fill="white" transform="translate(23 19.0913)"/>
</clipPath>
</defs>
</svg>
