<svg width="85" height="78" viewBox="0 0 85 78" fill="none" xmlns="http://www.w3.org/2000/svg">
<rect width="85" height="78" rx="4" fill="#442B2B"/>
<path d="M55.875 25.1494H30.875C30.212 25.1494 29.5761 25.4128 29.1072 25.8816C28.6384 26.3505 28.375 26.9864 28.375 27.6494V36.8338C28.375 50.8354 40.2219 55.4807 42.5938 56.2697C43.1003 56.442 43.6497 56.442 44.1562 56.2697C46.5312 55.4807 58.375 50.8354 58.375 36.8338V27.6494C58.375 26.9864 58.1116 26.3505 57.6428 25.8816C57.1739 25.4128 56.538 25.1494 55.875 25.1494ZM55.875 36.8354C55.875 49.0885 45.5078 53.1822 43.375 53.8947C41.2609 53.19 30.875 49.0994 30.875 36.8354V27.6494H55.875V36.8354ZM36.2406 41.0338C36.0061 40.7992 35.8743 40.4811 35.8743 40.1494C35.8743 39.8177 36.0061 39.4996 36.2406 39.265C36.4752 39.0305 36.7933 38.8987 37.125 38.8987C37.4567 38.8987 37.7748 39.0305 38.0094 39.265L40.875 42.1307L48.7406 34.265C48.8568 34.1489 48.9946 34.0568 49.1464 33.9939C49.2981 33.9311 49.4608 33.8987 49.625 33.8987C49.7892 33.8987 49.9519 33.9311 50.1036 33.9939C50.2554 34.0568 50.3932 34.1489 50.5094 34.265C50.6255 34.3812 50.7176 34.5191 50.7805 34.6708C50.8433 34.8225 50.8757 34.9852 50.8757 35.1494C50.8757 35.3137 50.8433 35.4763 50.7805 35.628C50.7176 35.7798 50.6255 35.9177 50.5094 36.0338L41.7594 44.7838C41.6433 44.9 41.5054 44.9922 41.3537 45.0551C41.2019 45.118 41.0393 45.1504 40.875 45.1504C40.7107 45.1504 40.5481 45.118 40.3963 45.0551C40.2446 44.9922 40.1067 44.9 39.9906 44.7838L36.2406 41.0338Z" fill="black"/>
<path d="M55.875 25.1494H30.875C30.212 25.1494 29.5761 25.4128 29.1072 25.8816C28.6384 26.3505 28.375 26.9864 28.375 27.6494V36.8338C28.375 50.8354 40.2219 55.4807 42.5938 56.2697C43.1003 56.442 43.6497 56.442 44.1562 56.2697C46.5312 55.4807 58.375 50.8354 58.375 36.8338V27.6494C58.375 26.9864 58.1116 26.3505 57.6428 25.8816C57.1739 25.4128 56.538 25.1494 55.875 25.1494ZM55.875 36.8354C55.875 49.0885 45.5078 53.1822 43.375 53.8947C41.2609 53.19 30.875 49.0994 30.875 36.8354V27.6494H55.875V36.8354ZM36.2406 41.0338C36.0061 40.7992 35.8743 40.4811 35.8743 40.1494C35.8743 39.8177 36.0061 39.4996 36.2406 39.265C36.4752 39.0305 36.7933 38.8987 37.125 38.8987C37.4567 38.8987 37.7748 39.0305 38.0094 39.265L40.875 42.1307L48.7406 34.265C48.8568 34.1489 48.9946 34.0568 49.1464 33.9939C49.2981 33.9311 49.4608 33.8987 49.625 33.8987C49.7892 33.8987 49.9519 33.9311 50.1036 33.9939C50.2554 34.0568 50.3932 34.1489 50.5094 34.265C50.6255 34.3812 50.7176 34.5191 50.7805 34.6708C50.8433 34.8225 50.8757 34.9852 50.8757 35.1494C50.8757 35.3137 50.8433 35.4763 50.7805 35.628C50.7176 35.7798 50.6255 35.9177 50.5094 36.0338L41.7594 44.7838C41.6433 44.9 41.5054 44.9922 41.3537 45.0551C41.2019 45.118 41.0393 45.1504 40.875 45.1504C40.7107 45.1504 40.5481 45.118 40.3963 45.0551C40.2446 44.9922 40.1067 44.9 39.9906 44.7838L36.2406 41.0338Z" fill="url(#paint0_linear_17_8701)"/>
<defs>
<linearGradient id="paint0_linear_17_8701" x1="44.0407" y1="44.9157" x2="54.66" y2="45.1671" gradientUnits="userSpaceOnUse">
<stop stop-color="#62B1F9"/>
<stop offset="1" stop-color="#FF7315"/>
</linearGradient>
</defs>
</svg>
